<?xml version="1.0" encoding="UTF-8" standalone="no"?>
<svg width="1440px" height="60px" viewBox="0 0 1440 60" version="1.1" xmlns="http://www.w3.org/2000/svg" xmlns:xlink="http://www.w3.org/1999/xlink">
    <!-- Generator: Sketch 3.7 (28169) - http://www.bohemiancoding.com/sketch -->
    <title>nav bar</title>
    <desc>Created with Sketch.</desc>
    <defs></defs>
    <g id="Page-1" stroke="none" stroke-width="1" fill="none" fill-rule="evenodd">
        <g id="Individual---Part-I">
            <g id="nav-bar">
                <rect id="Rectangle-1" fill="#3498DB" x="0" y="0" width="1440" height="60"></rect>
                <path d="M168.279621,38.9974929 C168.279621,39.4237064 168.232612,39.7673933 168.13755,40.0275089 C168.066514,40.2165889 167.900416,40.3952225 167.640301,40.5602758 C167.023963,40.9864893 166.089009,41.1995961 164.834395,41.1995961 C163.768861,41.1995961 163.022988,41.0167839 162.597819,40.6490703 C162.17056,40.2813566 161.957454,39.7318755 161.957454,38.9974929 C161.957454,38.287137 162.183096,37.7658611 162.632292,37.4357546 C163.224603,37.0095411 164.277601,36.7964343 165.793375,36.7964343 C166.73982,36.7964343 167.569265,36.8319521 168.279621,36.901943 L168.279621,38.9974929 Z M165.686822,26.2131764 C163.271612,26.2131764 161.271125,26.4492653 159.684315,26.9224876 C159.164084,27.0645588 158.902923,27.4082457 158.902923,27.9535483 C158.902923,28.8049307 158.986495,29.5393133 159.152593,30.1546069 C159.270637,30.6278292 159.543288,30.8649627 159.968457,30.8649627 C160.158582,30.8649627 160.584795,30.8054182 161.248142,30.6873738 C162.502756,30.4972491 163.768861,30.4032314 165.047502,30.4032314 C166.799365,30.4032314 167.805354,30.7469183 168.066514,31.4332474 C168.208585,31.7643986 168.279621,32.2501567 168.279621,32.889477 L168.279621,33.7063862 C167.451221,33.6113239 166.408669,33.5643151 165.154055,33.5643151 C162.502756,33.5643151 160.620313,33.9309841 159.507771,34.6653667 C158.134068,35.5877847 157.447739,37.0565499 157.447739,39.0685284 C157.447739,42.951459 159.495235,44.8934466 163.591272,44.8934466 C165.627278,44.8934466 167.237069,44.3136709 168.421692,43.1530747 L168.492728,43.792395 C168.516754,44.1005641 168.61704,44.307403 168.794629,44.4139564 C168.972218,44.5205098 169.274119,44.5737865 169.699288,44.5737865 L171.794838,44.5737865 C172.576229,44.5737865 172.966925,44.147573 172.966925,43.2951459 L172.966925,32.0725677 C172.966925,29.918518 172.564738,28.4382617 171.760365,27.6328435 C170.835858,26.6863988 168.812388,26.2131764 165.686822,26.2131764 L165.686822,26.2131764 Z M187.742327,26.4262832 C187.458185,26.3312208 186.960936,26.2831674 186.251625,26.2831674 C185.327117,26.2831674 184.469467,26.4492653 183.676585,26.7814611 C182.882657,27.1126123 182.320641,27.503308 181.989489,27.9535483 L181.918454,27.4197368 C181.894427,27.136639 181.8119,26.9402465 181.669829,26.8336932 C181.527758,26.7281844 181.290625,26.6738631 180.959473,26.6738631 L178.331157,26.6738631 C177.620801,26.6738631 177.266667,27.0530678 177.266667,27.8104325 L177.266667,43.5792883 C177.266667,44.2426353 177.562301,44.5737865 178.153568,44.5737865 L181.101545,44.5737865 C181.716838,44.5737865 182.025007,44.2426353 182.025007,43.5792883 L182.025007,32.0370499 C182.025007,31.7288808 182.060525,31.504283 182.131561,31.3622119 C182.226623,31.1961139 182.427194,31.0310607 182.735363,30.8649627 C183.445719,30.5567936 184.321128,30.4032314 185.36368,30.4032314 C185.528733,30.4032314 185.836902,30.4209903 186.286098,30.4565081 C186.736338,30.4920259 187.055998,30.5097848 187.245078,30.5097848 C187.766354,30.5097848 188.061987,30.3196601 188.133023,29.9415001 C188.299121,29.3502333 188.381648,28.4967616 188.381648,27.3852636 C188.381648,26.8639877 188.168541,26.5443276 187.742327,26.4262832 L187.742327,26.4262832 Z M205.305876,26.8336932 C204.512994,26.4670242 203.310612,26.2831674 201.70082,26.2831674 C200.564251,26.2831674 199.469467,26.4377742 198.415424,26.7448987 C197.362426,27.0530678 196.563276,27.4792813 196.019018,28.0235392 L195.946938,27.4907723 C195.899929,27.1826032 195.805911,26.9694965 195.66384,26.8514521 C195.521769,26.7334076 195.273144,26.6738631 194.917966,26.6738631 L192.360685,26.6738631 C191.650329,26.6738631 191.295151,27.0530678 191.295151,27.8104325 L191.295151,43.5792883 C191.295151,44.2426353 191.590785,44.5737865 192.183096,44.5737865 L195.131073,44.5737865 C195.746367,44.5737865 196.053491,44.2426353 196.053491,43.5792883 L196.053491,32.4277457 C196.053491,31.9775054 196.125571,31.6338185 196.267642,31.3977296 C196.432696,31.1846229 196.68132,31.018525 197.012471,30.9004805 C197.841916,30.5693293 198.847906,30.4032314 200.031484,30.4032314 C201.358178,30.4032314 202.138525,30.7469183 202.375658,31.4332474 C202.493703,31.7884254 202.553247,32.3682011 202.553247,33.1736193 L202.553247,43.5792883 C202.553247,44.2426353 202.848881,44.5737865 203.441192,44.5737865 L206.388124,44.5737865 C207.004463,44.5737865 207.311587,44.2426353 207.311587,43.5792883 L207.311587,32.0015321 C207.311587,30.3677136 207.182052,29.2081621 206.921936,28.521833 C206.637794,27.7634236 206.098759,27.2014068 205.305876,26.8336932 L205.305876,26.8336932 Z M256.064982,15 L252.680345,15 C251.899998,15 251.510347,15.4314367 251.510347,16.2963995 C251.510347,25.3200084 251.524972,31.1125427 251.552133,33.675047 C249.71461,30.5839543 245.926741,24.6378578 240.188528,15.8357128 C239.854243,15.2789191 239.381021,15 238.767817,15 L235.593153,15 C234.841011,15 234.46494,15.418901 234.46494,16.2546138 L234.46494,43.3264851 C234.46494,44.1611533 234.827431,44.5800543 235.551367,44.5800543 L238.893173,44.5800543 C239.67352,44.5800543 240.063171,44.1611533 240.063171,43.3264851 C240.063171,33.4107528 240.049591,27.491817 240.021386,25.5696776 C241.24675,27.6317989 245.049243,33.6478863 251.426776,43.6189846 C251.844632,44.2593495 252.443212,44.5800543 253.223559,44.5800543 L255.939625,44.5800543 C256.272866,44.5800543 256.559097,44.4682777 256.795186,44.2447246 C257.03232,44.0232607 257.150364,43.7171809 257.150364,43.3264851 L257.150364,16.2117836 C257.150364,15.4042761 256.788918,15 256.064982,15 L256.064982,15 Z M229.573931,39.3996796 L217.625328,39.3996796 L217.625328,31.8375235 L227.818934,31.8375235 C228.599281,31.8375235 228.988932,31.5032384 228.988932,30.8346682 L228.988932,27.8271467 C228.988932,27.0750052 228.599281,26.6989345 227.818934,26.6989345 L217.625328,26.6989345 L217.625328,20.1803747 L228.863575,20.1803747 C229.643922,20.1803747 230.033573,19.8471342 230.033573,19.1775193 L230.033573,16.1699979 C230.033573,15.418901 229.643922,15.0417856 228.863575,15.0417856 L212.946381,15.0417856 C212.2214,15.0417856 211.859954,15.4878473 211.859954,16.3799708 L211.859954,43.3264851 C211.859954,44.1339926 212.236025,44.5382687 212.988166,44.5382687 L229.573931,44.5382687 C230.353233,44.5382687 230.743929,44.2029389 230.743929,43.5354133 L230.743929,40.5686329 C230.743929,39.7893307 230.353233,39.3996796 229.573931,39.3996796 L229.573931,39.3996796 Z M150.306573,33.6353507 L143.630272,33.6353507 C143.678326,32.237621 143.962468,31.2316317 144.482699,30.6173828 C145.003975,30.0010446 145.914902,29.6928755 147.217569,29.6928755 C148.472183,29.6928755 149.306851,29.9540358 149.721574,30.474267 C150.135252,30.9955429 150.343135,31.8469253 150.343135,33.0315482 C150.343135,33.3386726 150.330599,33.5402883 150.306573,33.6353507 L150.306573,33.6353507 Z M154.462155,36.901943 C154.72227,36.712863 154.85285,36.3106762 154.85285,35.6953827 C154.85285,34.4156975 154.811065,33.3574761 154.728538,32.5165401 C154.646011,31.6756042 154.456931,30.8179539 154.160253,29.9415001 C153.86462,29.0650463 153.449897,28.3787172 152.917131,27.8814681 C152.384364,27.3852636 151.651026,26.9820322 150.716072,26.6738631 C149.781118,26.3667386 148.638281,26.2131764 147.288605,26.2131764 C144.329137,26.2131764 142.162552,26.9527822 140.789893,28.4330385 C139.41619,29.9122502 138.729861,32.3326833 138.729861,35.6953827 C138.729861,38.9860018 139.351423,41.3594261 140.594545,42.8156557 C141.837668,44.2718852 144.044995,45 147.217569,45 C150.224046,45 152.473158,44.6093043 153.964905,43.8279128 C154.368137,43.6377881 154.568708,43.3296191 154.568708,42.9044502 C154.568708,42.4782366 154.40261,41.743854 154.071459,40.702347 C153.953414,40.3241869 153.716281,40.1340623 153.361103,40.1340623 C152.981898,40.1340623 152.674774,40.1936068 152.43764,40.3116512 C151.111991,40.7378648 149.51369,40.9509715 147.643783,40.9509715 C146.223071,40.9509715 145.193055,40.6908559 144.553735,40.1695801 C143.914415,39.6483042 143.583263,38.6308239 143.559237,37.1150498 L153.609728,37.1150498 C153.988932,37.1150498 154.273075,37.0450588 154.462155,36.901943 L154.462155,36.901943 Z M134.559654,39.3161084 L130.664188,39.3161084 C130.171118,39.3161084 129.850413,39.8352949 130.070832,40.2761334 L132.019088,44.1715997 C132.263534,44.6604917 132.960309,44.6604917 133.204755,44.1715997 L135.153011,40.2761334 C135.37343,39.8352949 135.052725,39.3161084 134.559654,39.3161084 L134.559654,39.3161084 Z M134.138664,15.0417856 L131.156214,15.0417856 C130.539876,15.0417856 130.232751,15.3739815 130.232751,16.0373285 L130.232751,36.1330873 C130.232751,36.7964343 130.528385,37.1275855 131.119652,37.1275855 L134.067629,37.1275855 C134.683967,37.1275855 134.991091,36.7964343 134.991091,36.1330873 L134.991091,16.0373285 C134.991091,15.3739815 134.706949,15.0417856 134.138664,15.0417856 L134.138664,15.0417856 Z" id="Fill-1" fill="#FFFFFF"></path>
            </g>
        </g>
    </g>
</svg>