<?xml version="1.0" encoding="UTF-8" standalone="no"?>
<svg width="188px" height="134px" viewBox="0 0 188 134" version="1.1" xmlns="http://www.w3.org/2000/svg" xmlns:xlink="http://www.w3.org/1999/xlink">
    <!-- Generator: Sketch 3.7 (28169) - http://www.bohemiancoding.com/sketch -->
    <title>Triangle 1 Copy</title>
    <desc>Created with Sketch.</desc>
    <defs>
        <path d="M102,15 L91.8039007,1.40520096 C90.8053856,0.0738475248 89.1923661,0.0768451488 88.1960993,1.40520096 L78,15 L9.99853638,15 C4.47189085,15 0,19.4758939 0,24.9971887 L0,116.002811 C0,121.528481 4.47649722,126 9.99853638,126 L170.001464,126 C175.528109,126 180,121.524106 180,116.002811 L180,24.9971887 C180,19.4715192 175.523503,15 170.001464,15 L102,15 Z" id="path-1"></path>
        <filter x="-50%" y="-50%" width="200%" height="200%" filterUnits="objectBoundingBox" id="filter-2">
            <feOffset dx="0" dy="2" in="SourceAlpha" result="shadowOffsetOuter1"></feOffset>
            <feGaussianBlur stdDeviation="2" in="shadowOffsetOuter1" result="shadowBlurOuter1"></feGaussianBlur>
            <feComposite in="shadowBlurOuter1" in2="SourceAlpha" operator="out" result="shadowBlurOuter1"></feComposite>
            <feColorMatrix values="0 0 0 0 0.17254902   0 0 0 0 0.243137255   0 0 0 0 0.31372549  0 0 0 0.3 0" type="matrix" in="shadowBlurOuter1"></feColorMatrix>
        </filter>
        <mask id="mask-3" maskContentUnits="userSpaceOnUse" maskUnits="objectBoundingBox" x="0" y="0" width="180" height="125.59219" fill="white">
            <use xlink:href="#path-1"></use>
        </mask>
    </defs>
    <g id="Page-1" stroke="none" stroke-width="1" fill="none" fill-rule="evenodd">
        <g id="home-dropdown-copy-2" transform="translate(-5.000000, 0.000000)">
            <g id="home-dropdown" transform="translate(9.000000, 2.000000)">
                <g id="Triangle-1-Copy">
                    <use fill="black" fill-opacity="1" filter="url(#filter-2)" xlink:href="#path-1"></use>
                    <use stroke="#BDC3C7" mask="url(#mask-3)" stroke-width="2" fill="#FFFFFF" fill-rule="evenodd" xlink:href="#path-1"></use>
                </g>
            </g>
        </g>
    </g>
</svg>