<?xml version="1.0" encoding="UTF-8" standalone="no"?>
<svg width="188px" height="221px" viewBox="0 0 188 221" version="1.1" xmlns="http://www.w3.org/2000/svg" xmlns:xlink="http://www.w3.org/1999/xlink">
    <!-- Generator: Sketch 3.7 (28169) - http://www.bohemiancoding.com/sketch -->
    <title>Triangle 1 Copy</title>
    <desc>Created with Sketch.</desc>
    <defs>
        <path d="M163,15 L152.803901,1.40520096 C151.805386,0.0738475248 150.192366,0.0768451488 149.196099,1.40520096 L139,15 L9.99853638,15 C4.47189085,15 0,19.4787632 0,25.0035975 L0,204.996403 C0,210.51855 4.47649722,215 9.99853638,215 L170.001464,215 C175.528109,215 180,210.521237 180,204.996403 L180,25.0035975 C180,19.4814502 175.523503,15 170.001464,15 L163,15 Z" id="path-1"></path>
        <filter x="-50%" y="-50%" width="200%" height="200%" filterUnits="objectBoundingBox" id="filter-2">
            <feOffset dx="0" dy="2" in="SourceAlpha" result="shadowOffsetOuter1"></feOffset>
            <feGaussianBlur stdDeviation="2" in="shadowOffsetOuter1" result="shadowBlurOuter1"></feGaussianBlur>
            <feComposite in="shadowBlurOuter1" in2="SourceAlpha" operator="out" result="shadowBlurOuter1"></feComposite>
            <feColorMatrix values="0 0 0 0 0.17254902   0 0 0 0 0.243137255   0 0 0 0 0.31372549  0 0 0 0.3 0" type="matrix" in="shadowBlurOuter1"></feColorMatrix>
        </filter>
        <mask id="mask-3" maskContentUnits="userSpaceOnUse" maskUnits="objectBoundingBox" x="0" y="0" width="180" height="214.59219" fill="white">
            <use xlink:href="#path-1"></use>
        </mask>
    </defs>
    <g id="Page-1" stroke="none" stroke-width="1" fill="none" fill-rule="evenodd">
        <g id="home-dropdown-copy" transform="translate(-28.000000, 0.000000)">
            <g id="profile-dropdown" transform="translate(32.000000, 0.000000)">
                <g id="Triangle-1-Copy">
                    <use fill="black" fill-opacity="1" filter="url(#filter-2)" xlink:href="#path-1"></use>
                    <use stroke="#BDC3C7" mask="url(#mask-3)" stroke-width="2" fill="#FFFFFF" fill-rule="evenodd" xlink:href="#path-1"></use>
                </g>
            </g>
        </g>
    </g>
</svg>